<svg width="213" height="26" viewBox="0 0 213 26" fill="none" xmlns="http://www.w3.org/2000/svg">
<path d="M0 26V0H5.44028V10.5117H5.71425L11.7416 0H18.0821L11.3111 11.5781L18.2386 26H11.7416L7.24067 16.2499L5.44028 19.2968V26H0ZM19.6966 26V0H28.3462C29.8335 0 31.1348 0.351237 32.2503 1.05371C33.3657 1.75618 34.2333 2.76758 34.8529 4.08786C35.4727 5.40817 35.7825 6.99086 35.7825 8.83589C35.7825 10.6979 35.4629 12.2679 34.8237 13.5458C34.191 14.8238 33.3005 15.7887 32.1525 16.4404C31.0109 17.0921 29.677 17.4179 28.1505 17.4179H22.9842V11.9335H27.0546C27.6938 11.9335 28.2385 11.832 28.6887 11.6288C29.1452 11.4173 29.4943 11.083 29.7355 10.6259C29.9835 10.1689 30.1075 9.57223 30.1075 8.83589C30.1075 8.09111 29.9835 7.48598 29.7355 7.02047C29.4943 6.54652 29.1452 6.19952 28.6887 5.97946C28.2385 5.75095 27.6938 5.6367 27.0546 5.6367H25.1368V26H19.6966ZM31.4382 14.0663L36.448 26H30.538L25.6456 14.0663H31.4382ZM43.5418 0V26H38.1015V0H43.5418ZM46.12 0H52.8911L57.5485 14.7265H57.7834L62.4409 0H69.2118V26H63.889V10.9687H63.7324L59.2706 25.7967H56.0613L51.5995 10.8672H51.443V26H46.12V0ZM77.2305 0V26H71.7902V0H77.2305ZM97.1471 0V26H92.6071L85.3664 12.3398H85.2489V26H79.8088V0H84.4271L91.5503 13.6093H91.7068V0H97.1471ZM104.926 26H99.0552L105.67 0H113.106L119.72 26H113.85L109.466 7.16012H109.309L104.926 26ZM103.83 15.7421H114.867V21.0234H103.83V15.7421ZM121.65 26V0H127.091V20.3124H135.192V26H121.65ZM140.596 26L134.686 0H140.753L143.492 15.996H143.649L146.897 0H151.672L154.921 16.0468H155.077L157.817 0H163.884L157.974 26H152.768L149.363 11.4765H149.206L145.801 26H140.596ZM165.645 26V0H180.087V5.68747H171.085V10.1562H179.343V15.8437H171.085V20.3124H180.048V26H165.645ZM182.786 26V0H188.226V20.3124H196.327V26H182.786ZM195.583 5.68747V0H213V5.68747H206.973V26H201.61V5.68747H195.583Z" fill="white"/>
</svg>
